REM DIRINDEX 1\2\4\8,1\2\4\9,1\2\4\10,1\2\5\11,1\2\5\12,1\2\5\13,1\2\5\14,1\2\5\15,1\3\6\16,1\3\6\17,1\3\6\18,1\3\7\19,1\3\7\20,1\3\7\21,1\3\7\22,1\3\7\23
REM DIRNAME "folder01","folder02","folder03","folder04","folder05","folder06","folder07","folder08","folder09","folder10","folder11","folder12","folder13","folder14","folder15","folder16","folder17","folder18","folder19","folder20","folder21","folder22","folder23"
TITLE ""
FILE "LR_black_phrase_C08.mp3" MP3
  TRACK 01 AUDIO
    TITLE "0:"
    INDEX 01 00:00:00
  TRACK 02 AUDIO
    TITLE "19:cjc171_14701"
    INDEX 01 00:00:14
  TRACK 03 AUDIO
    TITLE "0:"
    INDEX 01 00:01:37
  TRACK 04 AUDIO
    TITLE "20:cjc171_14702"
    INDEX 01 00:01:74
  TRACK 05 AUDIO
    TITLE "0:"
    INDEX 01 00:03:18
  TRACK 06 AUDIO
    TITLE "21:cjc171_14703"
    INDEX 01 00:04:18
  TRACK 07 AUDIO
    TITLE "0:"
    INDEX 01 00:06:09
  TRACK 08 AUDIO
    TITLE "22:cjc171_14704"
    INDEX 01 00:06:46
  TRACK 09 AUDIO
    TITLE "0:"
    INDEX 01 00:08:67
  TRACK 10 AUDIO
    TITLE "23:cjc171_14705"
    INDEX 01 00:09:23
  TRACK 11 AUDIO
    TITLE "0:"
    INDEX 01 00:11:41
  TRACK 12 AUDIO
    TITLE "19:cjc171_14706"
    INDEX 01 00:12:47
  TRACK 13 AUDIO
    TITLE "0:"
    INDEX 01 00:13:62
  TRACK 14 AUDIO
    TITLE "20:cjc171_14707"
    INDEX 01 00:14:28
  TRACK 15 AUDIO
    TITLE "0:"
    INDEX 01 00:16:29
  TRACK 16 AUDIO
    TITLE "21:cjc171_14708"
    INDEX 01 00:17:30
  TRACK 17 AUDIO
    TITLE "0:"
    INDEX 01 00:19:12
  TRACK 18 AUDIO
    TITLE "22:cjc171_14709"
    INDEX 01 00:19:51
  TRACK 19 AUDIO
    TITLE "0:"
    INDEX 01 00:21:58
  TRACK 20 AUDIO
    TITLE "23:cjc171_14710"
    INDEX 01 00:22:14
  TRACK 21 AUDIO
    TITLE "0:"
    INDEX 01 00:24:21
  TRACK 22 AUDIO
    TITLE "19:cjc171_14711"
    INDEX 01 00:25:20
  TRACK 23 AUDIO
    TITLE "0:"
    INDEX 01 00:26:43
  TRACK 24 AUDIO
    TITLE "20:cjc171_14712"
    INDEX 01 00:27:07
  TRACK 25 AUDIO
    TITLE "0:"
    INDEX 01 00:28:46
  TRACK 26 AUDIO
    TITLE "21:cjc171_14713"
    INDEX 01 00:29:45
  TRACK 27 AUDIO
    TITLE "0:"
    INDEX 01 00:31:46
  TRACK 28 AUDIO
    TITLE "22:cjc171_14714"
    INDEX 01 00:32:04
  TRACK 29 AUDIO
    TITLE "0:"
    INDEX 01 00:34:19
  TRACK 30 AUDIO
    TITLE "23:cjc171_14715"
    INDEX 01 00:34:39
  TRACK 31 AUDIO
    TITLE "0:"
    INDEX 01 00:36:55
  TRACK 32 AUDIO
    TITLE "19:cjc171_14716"
    INDEX 01 00:37:49
  TRACK 33 AUDIO
    TITLE "0:"
    INDEX 01 00:38:74
  TRACK 34 AUDIO
    TITLE "20:cjc171_14717"
    INDEX 01 00:39:36
  TRACK 35 AUDIO
    TITLE "0:"
    INDEX 01 00:42:32
  TRACK 36 AUDIO
    TITLE "21:cjc171_14718"
    INDEX 01 00:43:34
  TRACK 37 AUDIO
    TITLE "0:"
    INDEX 01 00:45:21
  TRACK 38 AUDIO
    TITLE "22:cjc171_14719"
    INDEX 01 00:45:54
  TRACK 39 AUDIO
    TITLE "0:"
    INDEX 01 00:47:43
  TRACK 40 AUDIO
    TITLE "23:cjc171_14720"
    INDEX 01 00:47:65
  TRACK 41 AUDIO
    TITLE "0:"
    INDEX 01 00:49:54
  TRACK 42 AUDIO
    TITLE "19:cjc171_14721"
    INDEX 01 00:50:57
  TRACK 43 AUDIO
    TITLE "0:"
    INDEX 01 00:51:70
  TRACK 44 AUDIO
    TITLE "20:cjc171_14722"
    INDEX 01 00:52:36
  TRACK 45 AUDIO
    TITLE "0:"
    INDEX 01 00:55:03
  TRACK 46 AUDIO
    TITLE "21:cjc171_14723"
    INDEX 01 00:56:03
  TRACK 47 AUDIO
    TITLE "0:"
    INDEX 01 00:58:31
  TRACK 48 AUDIO
    TITLE "22:cjc171_14724"
    INDEX 01 00:58:74
  TRACK 49 AUDIO
    TITLE "0:"
    INDEX 01 01:01:49
  TRACK 50 AUDIO
    TITLE "23:cjc171_14725"
    INDEX 01 01:02:04
  TRACK 51 AUDIO
    TITLE "0:"
    INDEX 01 01:04:53
  TRACK 52 AUDIO
    TITLE "19:cjc171_14726"
    INDEX 01 01:05:57
  TRACK 53 AUDIO
    TITLE "0:"
    INDEX 01 01:07:07
  TRACK 54 AUDIO
    TITLE "20:cjc171_14727"
    INDEX 01 01:07:44
  TRACK 55 AUDIO
    TITLE "0:"
    INDEX 01 01:10:56
  TRACK 56 AUDIO
    TITLE "21:cjc171_14728"
    INDEX 01 01:11:57
  TRACK 57 AUDIO
    TITLE "0:"
    INDEX 01 01:13:41
  TRACK 58 AUDIO
    TITLE "22:cjc171_14729"
    INDEX 01 01:14:05
  TRACK 59 AUDIO
    TITLE "0:"
    INDEX 01 01:16:13
  TRACK 60 AUDIO
    TITLE "23:cjc171_14730"
    INDEX 01 01:16:43
  TRACK 61 AUDIO
    TITLE "0:"
    INDEX 01 01:18:52
  TRACK 62 AUDIO
    TITLE "19:cjc171_14731"
    INDEX 01 01:19:49
  TRACK 63 AUDIO
    TITLE "0:"
    INDEX 01 01:21:05
  TRACK 64 AUDIO
    TITLE "20:cjc171_14732"
    INDEX 01 01:21:44
  TRACK 65 AUDIO
    TITLE "0:"
    INDEX 01 01:24:38
  TRACK 66 AUDIO
    TITLE "21:cjc171_14733"
    INDEX 01 01:25:38
  TRACK 67 AUDIO
    TITLE "0:"
    INDEX 01 01:27:09
  TRACK 68 AUDIO
    TITLE "22:cjc171_14734"
    INDEX 01 01:27:43
  TRACK 69 AUDIO
    TITLE "0:"
    INDEX 01 01:30:16
  TRACK 70 AUDIO
    TITLE "23:cjc171_14735"
    INDEX 01 01:30:35
  TRACK 71 AUDIO
    TITLE "0:"
    INDEX 01 01:33:08
  TRACK 72 AUDIO
    TITLE "19:cjc171_14736"
    INDEX 01 01:34:02
  TRACK 73 AUDIO
    TITLE "0:"
    INDEX 01 01:35:25
  TRACK 74 AUDIO
    TITLE "20:cjc171_14737"
    INDEX 01 01:35:62
  TRACK 75 AUDIO
    TITLE "0:"
    INDEX 01 01:38:46
  TRACK 76 AUDIO
    TITLE "21:cjc171_14738"
    INDEX 01 01:39:46
  TRACK 77 AUDIO
    TITLE "0:"
    INDEX 01 01:41:37
  TRACK 78 AUDIO
    TITLE "22:cjc171_14739"
    INDEX 01 01:42:01
  TRACK 79 AUDIO
    TITLE "0:"
    INDEX 01 01:44:74
  TRACK 80 AUDIO
    TITLE "23:cjc171_14740"
    INDEX 01 01:45:23
  TRACK 81 AUDIO
    TITLE "0:"
    INDEX 01 01:48:21
  TRACK 82 AUDIO
    TITLE "19:cjc171_14741"
    INDEX 01 01:49:23
  TRACK 83 AUDIO
    TITLE "0:"
    INDEX 01 01:50:34
  TRACK 84 AUDIO
    TITLE "20:cjc171_14742"
    INDEX 01 01:50:73
  TRACK 85 AUDIO
    TITLE "0:"
    INDEX 01 01:52:43
  TRACK 86 AUDIO
    TITLE "21:cjc171_14743"
    INDEX 01 01:53:42
  TRACK 87 AUDIO
    TITLE "0:"
    INDEX 01 01:55:16
  TRACK 88 AUDIO
    TITLE "22:cjc171_14744"
    INDEX 01 01:55:55
  TRACK 89 AUDIO
    TITLE "0:"
    INDEX 01 01:57:36
  TRACK 90 AUDIO
    TITLE "23:cjc171_14745"
    INDEX 01 01:57:65
  TRACK 91 AUDIO
    TITLE "0:"
    INDEX 01 01:59:45
  TRACK 92 AUDIO
    TITLE "19:cjc171_14746"
    INDEX 01 02:00:50
  TRACK 93 AUDIO
    TITLE "0:"
    INDEX 01 02:02:12
  TRACK 94 AUDIO
    TITLE "20:cjc171_14747"
    INDEX 01 02:02:53
  TRACK 95 AUDIO
    TITLE "0:"
    INDEX 01 02:05:28
  TRACK 96 AUDIO
    TITLE "21:cjc171_14748"
    INDEX 01 02:06:25
  TRACK 97 AUDIO
    TITLE "0:"
    INDEX 01 02:08:36
  TRACK 98 AUDIO
    TITLE "22:cjc171_14749"
    INDEX 01 02:08:75
  TRACK 99 AUDIO
    TITLE "0:"
    INDEX 01 02:10:72
  TRACK 100 AUDIO
    TITLE "23:cjc171_14750"
    INDEX 01 02:11:24
  TRACK 101 AUDIO
    TITLE "0:"
    INDEX 01 02:13:21
  TRACK 102 AUDIO
    TITLE "19:cjc171_14751"
    INDEX 01 02:14:21
  TRACK 103 AUDIO
    TITLE "0:"
    INDEX 01 02:15:38
  TRACK 104 AUDIO
    TITLE "20:cjc171_14752"
    INDEX 01 02:15:75
  TRACK 105 AUDIO
    TITLE "0:"
    INDEX 01 02:17:39
  TRACK 106 AUDIO
    TITLE "21:cjc171_14753"
    INDEX 01 02:18:38
  TRACK 107 AUDIO
    TITLE "0:"
    INDEX 01 02:20:33
  TRACK 108 AUDIO
    TITLE "22:cjc171_14754"
    INDEX 01 02:20:66
  TRACK 109 AUDIO
    TITLE "0:"
    INDEX 01 02:22:57
  TRACK 110 AUDIO
    TITLE "23:cjc171_14755"
    INDEX 01 02:23:02
  TRACK 111 AUDIO
    TITLE "0:"
    INDEX 01 02:24:68
  TRACK 112 AUDIO
    TITLE "19:cjc171_14756"
    INDEX 01 02:25:62
  TRACK 113 AUDIO
    TITLE "0:"
    INDEX 01 02:27:02
  TRACK 114 AUDIO
    TITLE "20:cjc171_14757"
    INDEX 01 02:27:35
  TRACK 115 AUDIO
    TITLE "0:"
    INDEX 01 02:28:44
  TRACK 116 AUDIO
    TITLE "21:cjc171_14758"
    INDEX 01 02:29:42
  TRACK 117 AUDIO
    TITLE "0:"
    INDEX 01 02:32:32
  TRACK 118 AUDIO
    TITLE "22:cjc171_14759"
    INDEX 01 02:32:66
  TRACK 119 AUDIO
    TITLE "0:"
    INDEX 01 02:35:62
  TRACK 120 AUDIO
    TITLE "23:cjc171_14760"
    INDEX 01 02:36:07
  TRACK 121 AUDIO
    TITLE "0:"
    INDEX 01 02:39:01
  TRACK 122 AUDIO
    TITLE "19:cjc171_14761"
    INDEX 01 02:40:02
  TRACK 123 AUDIO
    TITLE "0:"
    INDEX 01 02:41:02
  TRACK 124 AUDIO
    TITLE "20:cjc171_14762"
    INDEX 01 02:41:43
  TRACK 125 AUDIO
    TITLE "0:"
    INDEX 01 02:42:54
  TRACK 126 AUDIO
    TITLE "21:cjc171_14763"
    INDEX 01 02:43:50
  TRACK 127 AUDIO
    TITLE "0:"
    INDEX 01 02:45:29
  TRACK 128 AUDIO
    TITLE "22:cjc171_14764"
    INDEX 01 02:45:66
  TRACK 129 AUDIO
    TITLE "0:"
    INDEX 01 02:47:53
  TRACK 130 AUDIO
    TITLE "23:cjc171_14765"
    INDEX 01 02:48:10
  TRACK 131 AUDIO
    TITLE "0:"
    INDEX 01 02:49:72
  TRACK 132 AUDIO
    TITLE "19:cjc171_14766"
    INDEX 01 02:51:02
  TRACK 133 AUDIO
    TITLE "0:"
    INDEX 01 02:52:23
  TRACK 134 AUDIO
    TITLE "20:cjc171_14767"
    INDEX 01 02:52:62
  TRACK 135 AUDIO
    TITLE "0:"
    INDEX 01 02:55:39
  TRACK 136 AUDIO
    TITLE "21:cjc171_14768"
    INDEX 01 02:56:37
  TRACK 137 AUDIO
    TITLE "0:"
    INDEX 01 02:58:40
  TRACK 138 AUDIO
    TITLE "22:cjc171_14769"
    INDEX 01 02:59:04
  TRACK 139 AUDIO
    TITLE "0:"
    INDEX 01 03:01:01
  TRACK 140 AUDIO
    TITLE "23:cjc171_14770"
    INDEX 01 03:01:30
  TRACK 141 AUDIO
    TITLE "0:"
    INDEX 01 03:03:25
  TRACK 142 AUDIO
    TITLE "19:cjc171_14771"
    INDEX 01 03:04:24
  TRACK 143 AUDIO
    TITLE "0:"
    INDEX 01 03:05:40
  TRACK 144 AUDIO
    TITLE "20:cjc171_14772"
    INDEX 01 03:05:75
  TRACK 145 AUDIO
    TITLE "0:"
    INDEX 01 03:08:40
  TRACK 146 AUDIO
    TITLE "21:cjc171_14773"
    INDEX 01 03:09:39
  TRACK 147 AUDIO
    TITLE "0:"
    INDEX 01 03:11:58
  TRACK 148 AUDIO
    TITLE "22:cjc171_14774"
    INDEX 01 03:12:16
  TRACK 149 AUDIO
    TITLE "0:"
    INDEX 01 03:14:29
  TRACK 150 AUDIO
    TITLE "23:cjc171_14775"
    INDEX 01 03:14:54
  TRACK 151 AUDIO
    TITLE "0:"
    INDEX 01 03:16:67
  TRACK 152 AUDIO
    TITLE "19:cjc171_14776"
    INDEX 01 03:17:68
  TRACK 153 AUDIO
    TITLE "0:"
    INDEX 01 03:19:06
  TRACK 154 AUDIO
    TITLE "20:cjc171_14777"
    INDEX 01 03:19:42
  TRACK 155 AUDIO
    TITLE "0:"
    INDEX 01 03:22:11
  TRACK 156 AUDIO
    TITLE "21:cjc171_14778"
    INDEX 01 03:23:10
  TRACK 157 AUDIO
    TITLE "0:"
    INDEX 01 03:25:31
  TRACK 158 AUDIO
    TITLE "22:cjc171_14779"
    INDEX 01 03:25:64
  TRACK 159 AUDIO
    TITLE "0:"
    INDEX 01 03:27:73
  TRACK 160 AUDIO
    TITLE "23:cjc171_14780"
    INDEX 01 03:28:19
  TRACK 161 AUDIO
    TITLE "0:"
    INDEX 01 03:30:26
  TRACK 162 AUDIO
    TITLE "19:cjc171_14781"
    INDEX 01 03:31:29
  TRACK 163 AUDIO
    TITLE "0:"
    INDEX 01 03:32:35
  TRACK 164 AUDIO
    TITLE "20:cjc171_14782"
    INDEX 01 03:32:74
  TRACK 165 AUDIO
    TITLE "0:"
    INDEX 01 03:34:28
  TRACK 166 AUDIO
    TITLE "21:cjc171_14783"
    INDEX 01 03:35:25
  TRACK 167 AUDIO
    TITLE "0:"
    INDEX 01 03:37:49
  TRACK 168 AUDIO
    TITLE "22:cjc171_14784"
    INDEX 01 03:38:12
  TRACK 169 AUDIO
    TITLE "0:"
    INDEX 01 03:40:20
  TRACK 170 AUDIO
    TITLE "23:cjc171_14785"
    INDEX 01 03:40:48
  TRACK 171 AUDIO
    TITLE "0:"
    INDEX 01 03:42:56
  TRACK 172 AUDIO
    TITLE "19:cjc171_14786"
    INDEX 01 03:43:58
  TRACK 173 AUDIO
    TITLE "0:"
    INDEX 01 03:45:02
  TRACK 174 AUDIO
    TITLE "20:cjc171_14787"
    INDEX 01 03:45:39
  TRACK 175 AUDIO
    TITLE "0:"
    INDEX 01 03:46:56
  TRACK 176 AUDIO
    TITLE "21:cjc171_14788"
    INDEX 01 03:47:54
  TRACK 177 AUDIO
    TITLE "0:"
    INDEX 01 03:49:15
  TRACK 178 AUDIO
    TITLE "22:cjc171_14789"
    INDEX 01 03:49:55
  TRACK 179 AUDIO
    TITLE "0:"
    INDEX 01 03:51:46
  TRACK 180 AUDIO
    TITLE "23:cjc171_14790"
    INDEX 01 03:51:71
  TRACK 181 AUDIO
    TITLE "0:"
    INDEX 01 03:53:62
  TRACK 182 AUDIO
    TITLE "19:cjc171_14791"
    INDEX 01 03:54:60
  TRACK 183 AUDIO
    TITLE "0:"
    INDEX 01 03:55:69
  TRACK 184 AUDIO
    TITLE "20:cjc171_14792"
    INDEX 01 03:56:37
  TRACK 185 AUDIO
    TITLE "0:"
    INDEX 01 03:59:43
  TRACK 186 AUDIO
    TITLE "21:cjc171_14793"
    INDEX 01 04:00:43
  TRACK 187 AUDIO
    TITLE "0:"
    INDEX 01 04:02:26
  TRACK 188 AUDIO
    TITLE "22:cjc171_14794"
    INDEX 01 04:02:59
  TRACK 189 AUDIO
    TITLE "0:"
    INDEX 01 04:05:20
  TRACK 190 AUDIO
    TITLE "23:cjc171_14795"
    INDEX 01 04:05:40
  TRACK 191 AUDIO
    TITLE "0:"
    INDEX 01 04:08:01
  TRACK 192 AUDIO
    TITLE "19:cjc171_14796"
    INDEX 01 04:08:72
  TRACK 193 AUDIO
    TITLE "0:"
    INDEX 01 04:10:06
  TRACK 194 AUDIO
    TITLE "20:cjc171_14797"
    INDEX 01 04:10:43
  TRACK 195 AUDIO
    TITLE "0:"
    INDEX 01 04:12:46
  TRACK 196 AUDIO
    TITLE "21:cjc171_14798"
    INDEX 01 04:13:45
  TRACK 197 AUDIO
    TITLE "0:"
    INDEX 01 04:15:25
  TRACK 198 AUDIO
    TITLE "22:cjc171_14799"
    INDEX 01 04:15:60
  TRACK 199 AUDIO
    TITLE "0:"
    INDEX 01 04:17:39
  TRACK 200 AUDIO
    TITLE "23:cjc171_14800"
    INDEX 01 04:17:61
  TRACK 201 AUDIO
    TITLE "0:"
    INDEX 01 04:19:38
